<?xml version="1.0" standalone="no"?>
<!DOCTYPE svg PUBLIC "-//W3C//DTD SVG 20010904//EN"
 "http://www.w3.org/TR/2001/REC-SVG-20010904/DTD/svg10.dtd">
<svg version="1.0" xmlns="http://www.w3.org/2000/svg"
 width="96.000000pt" height="96.000000pt" viewBox="0 0 96.000000 96.000000"
 preserveAspectRatio="xMidYMid meet">

<g transform="translate(0.000000,96.000000) scale(0.100000,-0.100000)"
fill="#000000" stroke="none">
<path d="M126 905 c-88 -31 -126 -85 -126 -178 0 -69 20 -117 64 -152 81 -66
96 -87 96 -135 0 -38 -5 -51 -30 -75 l-31 -29 3 -115 c2 -78 7 -116 15 -118 7
-3 31 25 55 61 24 36 50 68 58 71 12 5 13 4 3 -6 -7 -7 -13 -29 -12 -48 0 -44
40 -153 57 -159 7 -2 21 16 33 45 39 88 47 93 169 93 122 0 130 -5 169 -93 12
-29 26 -47 33 -45 17 6 57 115 57 158 1 20 -5 42 -11 49 -11 10 -10 11 2 6 8
-3 34 -35 58 -71 24 -36 48 -64 55 -61 8 2 13 40 15 118 l3 115 -31 29 c-25
24 -30 37 -30 75 0 40 5 50 37 80 123 118 130 129 121 234 -8 99 -80 158 -193
160 -58 1 -60 0 -63 -26 -2 -15 2 -36 8 -48 10 -18 8 -20 -20 -20 -29 0 -30
-2 -30 -45 0 -49 20 -108 47 -137 21 -23 17 -25 -39 -20 l-48 4 0 49 c0 36 -5
54 -20 69 -46 46 -100 9 -100 -70 0 -43 -3 -50 -20 -50 -17 0 -20 7 -20 40 0
27 -7 47 -20 60 -43 43 -100 9 -100 -59 l0 -39 -47 -4 c-27 -3 -49 -4 -51 -2
-2 1 8 18 22 39 28 40 39 86 34 131 -2 23 -8 30 -30 32 -25 3 -27 6 -17 23 5
11 9 32 7 47 -3 24 -7 27 -48 29 -25 2 -63 -4 -84 -12z m74 -29 c0 -3 -9 -21
-21 -40 -11 -19 -18 -40 -14 -46 3 -5 26 -10 51 -10 24 0 44 -2 44 -5 0 -19
-43 -85 -64 -99 -32 -20 -32 -29 -5 -68 15 -21 18 -33 11 -40 -8 -8 -31 7 -81
51 -91 81 -105 136 -51 204 21 27 130 71 130 53z m649 -24 c58 -27 85 -94 62
-154 -13 -36 -140 -143 -153 -130 -7 7 -4 19 11 40 27 39 27 48 -5 68 -21 14
-64 80 -64 99 0 3 20 5 44 5 25 0 48 5 51 10 4 6 -3 27 -14 46 -12 19 -21 37
-21 40 0 7 51 -7 89 -24z m-273 -143 c10 -17 -13 -36 -27 -22 -12 12 -4 33 11
33 5 0 12 -5 16 -11z m-160 -20 c10 -17 -13 -36 -27 -22 -12 12 -4 33 11 33 5
0 12 -5 16 -11z m302 -142 c64 -66 53 -125 -42 -225 -65 -69 -95 -82 -196 -82
-101 0 -131 13 -197 83 -95 101 -106 166 -37 226 l35 31 202 0 203 0 32 -33z
m-508 -202 c11 -13 9 -20 -12 -43 -14 -15 -32 -38 -41 -52 l-17 -24 0 44 c0
31 6 50 22 67 25 27 31 28 48 8z m587 -7 c17 -16 23 -32 23 -67 l0 -45 -17 24
c-9 14 -27 37 -41 52 -21 23 -23 30 -12 43 16 20 19 19 47 -7z m-469 -114 c2
-1 -8 -18 -22 -39 -26 -37 -26 -37 -35 -14 -13 34 16 83 38 66 9 -6 17 -12 19
-13z m368 -33 c-2 -3 -6 -14 -10 -25 -5 -16 -10 -13 -32 20 -25 36 -25 39 -8
51 15 11 20 9 35 -14 10 -15 17 -29 15 -32z"/>
</g>
</svg>
